<?xml version="1.0" encoding="UTF-8"?>
<svg id="hand-pressed" xmlns="http://www.w3.org/2000/svg" viewBox="0 0 73.04 88.18">
  <defs>
    <style>.cls-1{fill:#fff;}</style>
  </defs>
  <path class="cls-1"
        d="M70.77,50.11s-2.57-12.62-3.18-15.54c-1.04-5.61-8.39-7.87-12.43-3.9-1.31-1.95-3.66-3.25-6-3.26C50.9,12.95,39.21-.09,24.6,0-6.66,.97-8.83,45.23,22.15,49.12c.4,1.96,.78,3.79,1.1,5.34-4.07-2.39-6.42-5.47-10.96-4.62-6.45,1.25-8.14,9.89-2.64,13.48l2.44,1.61c4.26,2.74,10.72,7.22,12.83,9.7,8.68,10.2,14.87,13.74,24.11,13.54,12.67-.56,18.48-2.59,22.39-12.35,2.84-6.88,1.52-15-.65-25.71ZM3.96,24.63C3.96,13.3,13.22,4.08,24.6,4.08c12.83-.14,22.89,12.08,20.22,24.59-.33,.21-.64,.45-.92,.71-2.15-3.66-7.69-4.66-11.02-1.83-.36-4.48-4.59-8.02-9.06-7-4.03,.82-6.63,4.76-5.8,8.78,.43,2.12,2.62,12.5,3.25,15.57-9.89-1.56-17.31-10.01-17.31-20.27Zm63.67,49.64c-2.43,5.89-4.9,9.49-18.7,9.82-7.84,.18-13.06-2.86-20.88-12.09-2.59-3.06-9.7-7.83-11.1-8.75-1.24-.83-3.63-2.4-5.03-3.33-3.64-2.54-.05-7.93,3.71-5.6,5.75,3.8,9.71,6.4,13.65,9-1.12-5.33-7.1-34.08-7.25-34.82-.66-2.86,2.73-5.14,5.14-3.48,.75,.49,1.27,1.25,1.45,2.13,.44,2.15,4.52,21.49,4.52,21.49l4.01-.82c-.06-.28-2.38-11.41-2.86-13.82-.79-4.36,5.58-5.65,6.59-1.35,.84,4,2.13,10.32,2.92,14.1l4.01-.82c-.31-1.54-2.13-10.42-2.13-10.42-.32-1.51,.44-3.03,1.86-3.71,1.9-.94,4.37,.27,4.74,2.38,.1,.44,2.11,10.21,2.11,10.21l4.01-.8-1.44-7c-.61-4.28,5.66-5.4,6.62-1.19,.61,2.91,3.17,15.52,3.17,15.52,1.24,6.12,2.19,11.32,2.19,15.76,0,2.82-.38,5.33-1.31,7.59Z"/>
</svg>