<?xml version="1.0" encoding="UTF-8"?>
<svg id="hand" xmlns="http://www.w3.org/2000/svg" viewBox="0 0 73.04 88.18">
  <defs>
    <style>.cls-1{fill:#fff;}</style>
  </defs>
  <path class="cls-1"
        d="M48.25,88.18c-8.73,0-14.92-3.63-23.33-13.56-1.69-1.99-6.57-5.55-10.23-7.99-.75-.5-1.52-1.01-2.55-1.69l-2.48-1.64c-3.43-2.26-4.37-6.88-2.1-10.3,2.27-3.42,6.91-4.35,10.34-2.09l5.36,3.54L15.93,19.08c-.83-4.01,1.77-7.95,5.8-8.78,4.03-.82,7.98,1.76,8.81,5.78,.23,1.1,1.22,5.89,2.38,11.44,.91-.72,1.98-1.23,3.15-1.47,1.95-.4,3.94-.02,5.61,1.07,.91,.6,1.67,1.37,2.23,2.27,.96-.89,2.18-1.54,3.56-1.82,3.05-.62,6.04,.7,7.69,3.11,1-.94,2.24-1.59,3.62-1.88,4.03-.83,7.98,1.76,8.81,5.78,.6,2.92,3.17,15.53,3.17,15.53,2.18,10.71,3.5,18.83,.66,25.71-2.79,6.76-6.21,11.97-22.39,12.36-.26,0-.53,0-.79,0ZM13.78,53.77c-1.09,0-2.17,.53-2.81,1.5-1.03,1.54-.6,3.63,.95,4.65l2.48,1.63c1.04,.68,1.81,1.19,2.57,1.7,1.98,1.32,8.63,5.84,11.09,8.75,7.82,9.23,13.09,12.27,20.89,12.1,13.79-.33,16.27-3.93,18.7-9.83,2.4-5.82,1.15-13.35-.88-23.35,0,0-2.57-12.61-3.17-15.52-.37-1.81-2.17-2.98-3.98-2.61-.88,.18-1.64,.69-2.13,1.44-.47,.71-.65,1.55-.51,2.38l1.44,6.98-4.01,.82v-.02l-1.42-6.82c-.01-.07-.03-.14-.04-.21l-.66-3.2c-.37-1.81-2.16-2.98-3.98-2.61-1.82,.37-2.99,2.15-2.62,3.96,.6,2.92,2.13,10.42,2.13,10.42l-4.01,.82-2.92-14.1c-.18-.88-.7-1.63-1.45-2.12-.75-.49-1.65-.66-2.53-.48-.88,.18-1.64,.69-2.13,1.44-.49,.75-.67,1.64-.48,2.52l2.86,13.82-4.01,.83h0c-.09-.43-6-28.85-6.6-31.74-.37-1.81-2.16-2.99-3.98-2.61-1.82,.37-2.99,2.15-2.62,3.96l9.32,45.07-13.63-9c-.57-.38-1.22-.56-1.85-.56Z"/>
</svg>