<?xml version="1.0" encoding="UTF-8"?>
<svg id="pointer-pressed" xmlns="http://www.w3.org/2000/svg" viewBox="0 0 83.39 88.18">
  <defs>
    <style>.cls-1{fill:#fff;}</style>
  </defs>
  <path class="cls-1"
        d="M83.39,46.88L47.83,29.09c.33-1.6,.5-3.25,.5-4.92C48.33,10.84,37.49,0,24.17,0S0,10.84,0,24.17s10.84,24.16,24.17,24.16c.82,0,1.64-.04,2.44-.13l13.37,38.39,12.12-17,16.54,18.59,14.01-12.86-17.36-17.85,18.1-10.59Zm-59.22-2.55c-11.12,0-20.17-9.04-20.17-20.16S13.05,4,24.17,4s20.16,9.05,20.16,20.17c0,1.03-.08,2.06-.23,3.06L14.08,12.21l11.17,32.09c-.36,.02-.72,.03-1.08,.03Zm52.74,30.83l-7.98,7.33-17.18-19.3-10.54,14.78-10.59-30.41-9.52-27.37,25.68,12.85,28.22,14.12-16.14,9.43,18.05,18.57Z"/>
</svg>